<svg xmlns="http://www.w3.org/2000/svg" width="31.334" height="31.334"><path d="M15.668 0C7.03 0 .002 7.029.002 15.668c0 8.64 7.028 15.666 15.666 15.666 8.639 0 15.664-7.026 15.664-15.666C31.332 7.029 24.307 0 15.668 0zm-7.52 8.295h7.758c1.06 0 1.912.846 1.912 1.898v2.123h-2.53a3.353 3.353 0 00-3.374 3.35 3.355 3.355 0 003.373 3.352h2.531v2.123a1.901 1.901 0 01-1.912 1.898H8.148a1.901 1.901 0 01-1.912-1.898V10.193c0-1.052.853-1.898 1.912-1.898zm13.174 1.502c.374-.02.77.116 1.117.474l5.457 5.42-5.455 5.418c-.288.289-.666.43-1.045.43-.378 0-.755-.141-1.044-.43a1.463 1.463 0 010-2.078l1.886-1.873h-6.752c-1.97 0-1.97-2.937 0-2.937h6.75l-1.886-1.873c-1.082-1.038-.15-2.493.972-2.551z" fill="#fff"/></svg>
