<svg xmlns="http://www.w3.org/2000/svg" width="1133.857" height="840" viewBox="0 0 300 222.25"><defs><path id="a" d="M-133.804-52.917H30.994v87.69h-164.798z"/></defs><path style="fill:#1b3f75;stroke-width:2.10026;stroke-linecap:round;stroke-linejoin:round;stop-color:#000;fill-opacity:1" d="M-207.408-442.857A566.93 377.953 0 0 0-774.285-64.904a566.93 377.953 0 0 0 123.18 235.224l-86.038 226.823 318.09-111.432a566.93 377.953 0 0 0 211.696 27.338 566.93 377.953 0 0 0 566.93-377.953 566.93 377.953 0 0 0-566.93-377.953 566.93 377.953 0 0 0-.051 0zm-6.432 127.267c83.562 0 154.877 56.188 154.877 139.03 0 65.552-55.467 98.689-97.969 123.181-22.331 12.967-33.857 28.094-33.857 44.662 0 7.204 2.883 10.805 2.883 20.17 0 18.73-13.689 31.697-36.02 31.697-28.814 0-45.383-23.772-45.383-57.629 0-38.179 22.333-62.671 56.91-82.841 36.019-20.89 74.919-41.782 74.919-79.24 0-40.34-34.58-66.995-77.801-66.995-25.213 0-51.146 11.527-69.875 25.934-11.526 8.644-23.052 16.568-36.739 16.568-17.288 0-33.857-18.729-33.857-36.738 0-14.407 7.926-25.213 20.172-33.857 30.976-23.772 71.315-43.942 121.74-43.942zm-9.365 409.164c29.535 0 48.984 19.45 48.984 46.104 0 30.975-23.05 46.103-50.424 46.103-28.814 0-49.705-16.568-49.705-45.383 0-27.373 22.33-46.824 51.145-46.824z" transform="matrix(.26458 0 0 .26458 204.863 117.173)"/></svg>
